 http://www.imdb.com/title/tt1038686/

Release Date: 22 January 2010 (USA)

Genre: Action | Fantasy | Thriller

Plot: God loses faith in mankind and orders Angel Michael in addition to a legion of other angels to bring the Apocalypse to Earth and exterminate the human race. However, Michael rebels against the order and decides to help the humans. Meanwhile in a diner in the middle of nowhere, Bob Hanson, runs the place with his son Jeep, a pregnant waitress, Charlie, and his friend Percy Walker. Their customers, the Anderson family, are stranded until Jeep can fix their BMW and lonely Kyle Williams who is lost.

Cast:
Paul Bettany ... Michael
Lucas Black ... Jeep Hanson
Tyrese Gibson ... Kyle Williams
Adrianne Palicki ... Charlie
Willa Holland ... Audrey Anderson
Kate Walsh ... Sandra Anderson
Kevin Durand ... Gabriel
Charles S. Dutton ... Percy Walker
Dennis Quaid ... Bob Hanson
Jon Tenney ... Howard Anderson
Jeanette Miller ... Gladys Foster
Cameron Harlow ... Minivan Boy
Doug Jones ... Ice Cream Man
Josh Stamberg ... Burton
Yancey Arias ... Estevez
 
http://img405.imageshack.us/img405/5809/legion1y.jpg
 
http://img576.imageshack.us/slideshow/webplayer.php?id=legion2.png


File Name

Legion 2010 800p BRRip H264.mp4

File Size
Format : MPEG-4
Format profile : Base Media
Codec ID : isom
File size : 3.70 GiB
Duration : 1h 40mn
Overall bit rate : 5 293 Kbps

Video
ID : 1
Format : AVC
Format/Info : Advanced Video Codec
Format profile : High@L4.1
Format settings, CABAC : Yes
Format settings, ReFrames : 3 frames
Codec ID : avc1
Codec ID/Info : Advanced Video Coding
Duration : 1h 40mn
Bit rate mode : Variable
Bit rate : 4 649 Kbps
Maximum bit rate : 17.4 Mbps
Width : 1 920 pixels
Height : 800 pixels
Display aspect ratio : 2.40:1
Frame rate mode : Constant
Frame rate : 23.976 fps
Resolution : 24 bits
Colorimetry : 4:2:0
Scan type : Progressive
Bits/(Pixel*Frame) : 0.126
Stream size : 3.25 GiB (88%)

Audio #1
ID : 2
Format : AAC
Format/Info : Advanced Audio Codec
Format version : Version 4
Format profile : LC
Format settings, SBR : No
Codec ID : 40
Duration : 1h 40mn
Bit rate mode : Variable
Bit rate : 192 Kbps
Maximum bit rate : 199 Kbps
Channel(s) : 2 channels
Channel positions : L R
Sampling rate : 48.0 KHz
Resolution : 16 bits
Stream size : 137 MiB (4%)

Audio #2
ID : 3
Format : AAC
Format/Info : Advanced Audio Codec
Format version : Version 4
Format profile : LC
Format settings, SBR : No
Codec ID : 40
Duration : 1h 40mn
Bit rate mode : Variable
Bit rate : 448 Kbps
Maximum bit rate : 465 Kbps
Channel(s) : 6 channels
Channel positions : Front: L C R, Rear: L R, LFE
Sampling rate : 48.0 KHz
Resolution : 16 bits
Stream size : 321 MiB (8%)

English SRT : ----

Language : English

Encoded By Wrath